<?xml version="1.0" encoding="utf-8"?>
<!-- Generator: Adobe Illustrator 16.0.0, SVG Export Plug-In . SVG Version: 6.00 Build 0)  -->
<!DOCTYPE svg PUBLIC "-//W3C//DTD SVG 1.1//EN" "http://www.w3.org/Graphics/SVG/1.1/DTD/svg11.dtd">
<svg version="1.1" id="Layer_1" xmlns="http://www.w3.org/2000/svg" xmlns:xlink="http://www.w3.org/1999/xlink" x="0px" y="0px"
	 width="30.25px" height="52.25px" viewBox="0 0 30.25 52.25" enable-background="new 0 0 30.25 52.25" xml:space="preserve">
<path fill="#004626" d="M12.62,4C9.362,4,6.719,6.642,6.719,9.9c0,3.257,2.643,5.898,5.901,5.898c3.256,0,5.897-2.642,5.897-5.898
	l0,0C18.508,6.646,15.873,4.01,12.62,4z M12.604,18.247c-0.61,0.008-1.1,0.511-1.089,1.123v15.932
	c-0.021,0.61,0.458,1.123,1.07,1.142c0.61,0.021,1.123-0.457,1.142-1.07c0-0.023,0-0.048,0-0.071v-15.93
	c0.008-0.611-0.481-1.113-1.091-1.123c-0.011,0-0.021,0-0.032,0V18.247z"/>
</svg>
